<svg viewBox="0 0 501 257" fill="none" xmlns="http://www.w3.org/2000/svg">
    <g filter="url(#filter0_i_1_15)">
        <path d="M26.8687 212.638C17.9599 212.638 11.3551 207.954 7.0543 198.584C2.9071 189.214 0.833496 175.16 0.833496 156.421C0.833496 137.682 3.5983 115.486 9.1279 89.8352C14.6575 64.184 21.1087 42.9104 28.4815 26.0144C36.0079 9.11841 42.5359 0.67041 48.0655 0.67041C50.6767 0.67041 51.9823 2.20641 51.9823 5.27842C48.7567 12.6512 44.6863 23.7872 39.7711 38.6864C34.8559 53.432 30.7087 67.1024 27.3295 79.6976C24.1039 92.2928 21.1087 107.038 18.3439 123.934C15.7327 140.83 14.4271 155.346 14.4271 167.48C14.4271 179.461 15.5791 188.677 17.8831 195.128C20.3407 201.733 23.6431 205.035 27.7903 205.035C31.3231 205.035 34.7023 203.346 37.9279 199.966C41.1535 196.741 43.4575 193.515 44.8399 190.29C45.6079 188.6 46.9903 188.139 48.9871 188.907C49.7551 189.214 49.9087 189.829 49.4479 190.75C49.1407 191.826 48.5263 193.131 47.6047 194.667C46.8367 196.203 45.3775 198.584 43.2271 201.81C38.6191 209.029 33.1663 212.638 26.8687 212.638Z" fill="url(#paint0_linear_1_15)"/>
        <path d="M134.339 196.28C136.182 196.28 137.872 195.435 139.408 193.746C141.097 192.21 142.633 189.752 144.016 186.373C144.169 184.99 145.091 184.299 146.781 184.299C148.47 184.299 149.085 184.99 148.624 186.373C148.317 187.755 147.702 189.445 146.781 191.442C146.013 193.438 144.246 196.05 141.481 199.275C138.87 202.654 136.182 204.344 133.417 204.344C127.273 204.344 122.512 200.504 119.133 192.824C115.6 185.144 113.833 175.698 113.833 164.485C113.833 153.118 114.678 141.445 116.368 129.464H114.294C95.7086 161.874 81.4239 178.078 71.4398 178.078C59.6126 178.078 53.699 169.093 53.699 151.122C53.699 132.997 57.539 114.949 65.219 96.9776C73.667 77.1632 81.1166 67.256 87.5678 67.256C90.3326 67.256 91.715 68.9456 91.715 72.3248C85.2638 89.3744 79.7342 105.963 75.1262 122.091C70.5182 138.219 68.2142 150.277 68.2142 158.264C68.2142 166.098 70.0574 170.014 73.7438 170.014C76.355 170.014 80.195 166.866 85.2638 160.568C90.4862 154.27 95.7854 146.59 101.161 137.528C112.681 118.021 121.437 101.432 127.427 87.7616C133.571 74.0912 139.869 67.256 146.32 67.256C149.392 67.256 150.928 68.9456 150.928 72.3248C141.097 91.832 134.109 115.102 129.961 142.136C128.272 152.888 127.427 163.41 127.427 173.701C127.427 188.754 129.731 196.28 134.339 196.28Z" fill="url(#paint1_linear_1_15)"/>
        <path d="M235.912 74.6288C240.366 78.008 244.59 79.6976 248.584 79.6976C252.731 79.6976 255.649 79.16 257.339 78.0848C257.339 80.0816 256.417 82.0016 254.574 83.8448C252.884 85.5344 250.35 86.3792 246.971 86.3792C243.745 86.3792 240.212 85.6112 236.372 84.0752C235.912 98.5136 233.147 113.336 228.078 128.542C223.009 143.595 216.481 156.267 208.494 166.558C200.507 176.696 192.52 181.765 184.533 181.765C176.699 181.765 171.093 178.539 167.713 172.088C164.334 165.483 162.645 157.957 162.645 149.509C162.645 139.371 164.027 128.542 166.792 117.022C169.71 105.349 173.089 95.9792 176.929 88.9136C180.769 81.848 184.225 78.3152 187.297 78.3152C190.369 78.3152 191.905 79.928 191.905 83.1536C182.229 116.638 177.39 140.139 177.39 153.656C177.39 167.173 180.385 173.931 186.376 173.931C191.598 173.931 197.512 169.4 204.117 160.338C210.875 151.275 216.712 139.371 221.627 124.626C226.542 109.726 229 95.2112 229 81.08V79.6976C224.545 76.472 220.936 72.632 218.171 68.1776C215.406 63.7232 214.024 60.4208 214.024 58.2704C214.024 55.9664 215.022 53.8928 217.019 52.0496C219.016 50.2064 221.166 49.2848 223.47 49.2848C226.235 49.2848 228.769 51.896 231.073 57.1184C233.531 62.1872 235.144 68.024 235.912 74.6288Z" fill="url(#paint2_linear_1_15)"/>
        <path d="M312.958 67.256C324.632 67.256 330.469 74.0912 330.469 87.7616C330.469 95.5952 327.858 103.813 322.635 112.414C313.726 126.699 301.899 133.842 287.154 133.842C284.85 133.842 282.93 133.458 281.394 132.69C279.858 131.922 278.706 130.77 277.938 129.234C288.843 129.234 298.827 122.936 307.89 110.341C315.262 100.203 318.949 90.9104 318.949 82.4624C318.949 76.1648 316.414 73.016 311.346 73.016C301.208 73.016 291.762 80.9264 283.006 96.7472C273.637 113.95 268.952 131.614 268.952 149.739C268.952 165.099 273.33 174.315 282.085 177.387C283.774 178.002 285.925 178.309 288.536 178.309C291.147 178.309 293.912 177.694 296.83 176.466C299.749 175.083 302.206 173.47 304.203 171.627C308.197 167.941 311.499 163.87 314.11 159.416C314.725 158.187 315.877 157.573 317.566 157.573C320.331 157.573 321.637 158.034 321.483 158.955C321.022 160.645 319.256 163.486 316.184 167.48C313.266 171.474 310.501 174.699 307.89 177.157C305.432 179.461 302.13 181.534 297.982 183.378C293.989 185.374 289.918 186.373 285.771 186.373C269.49 186.373 259.122 178.693 254.667 163.333C253.285 158.11 252.594 152.734 252.594 147.205C252.594 136.914 254.974 125.701 259.736 113.566C267.262 95.1344 277.63 81.848 290.84 73.7072C298.059 69.4064 305.432 67.256 312.958 67.256Z" fill="url(#paint3_linear_1_15)"/>
        <path d="M376.181 212.638C367.272 212.638 360.668 207.954 356.367 198.584C352.22 189.214 350.146 175.16 350.146 156.421C350.146 137.682 352.911 115.486 358.44 89.8352C363.97 64.184 370.421 42.9104 377.794 26.0144C385.32 9.11841 391.848 0.67041 397.378 0.67041C399.989 0.67041 401.295 2.20641 401.295 5.27842C398.069 12.6512 393.999 23.7872 389.084 38.6864C384.168 53.432 380.021 67.1024 376.642 79.6976C373.416 92.2928 370.421 107.038 367.656 123.934C365.045 140.83 363.74 155.346 363.74 167.48C363.74 179.461 364.892 188.677 367.196 195.128C369.653 201.733 372.956 205.035 377.103 205.035C380.636 205.035 384.015 203.346 387.24 199.966C390.466 196.741 392.77 193.515 394.152 190.29C394.92 188.6 396.303 188.139 398.3 188.907C399.068 189.214 399.221 189.829 398.76 190.75C398.453 191.826 397.839 193.131 396.917 194.667C396.149 196.203 394.69 198.584 392.54 201.81C387.932 209.029 382.479 212.638 376.181 212.638Z" fill="url(#paint4_linear_1_15)"/>
        <path d="M409.232 251.115C423.056 251.115 433.885 244.587 441.719 231.531C448.477 220.011 453.7 205.65 457.386 188.446C429.584 189.061 408.234 199.659 393.335 220.242C392.413 221.624 390.954 221.854 388.957 220.933C387.882 220.318 387.575 219.55 388.036 218.629C394.64 208.645 403.856 200.12 415.684 193.054C427.511 186.142 441.872 182.379 458.768 181.765C460.458 174.085 462.071 165.099 463.607 154.808C465.143 144.517 466.909 134.533 468.906 124.856H466.832C446.864 160.338 431.658 178.078 421.213 178.078C409.54 178.078 403.703 169.093 403.703 151.122C403.703 133.15 407.543 115.102 415.223 96.9776C422.903 78.6992 429.892 68.8688 436.189 67.4864L437.572 67.256C440.183 67.256 441.488 68.9456 441.488 72.3248C439.799 76.472 437.648 81.9248 435.037 88.6832C432.426 95.288 428.97 106.27 424.669 121.63C420.368 136.837 418.218 148.741 418.218 157.342C418.218 165.79 420.061 170.014 423.748 170.014C428.048 170.014 434.96 162.565 444.484 147.666C458.461 125.854 470.596 103.736 480.887 81.3104C485.341 71.9408 490.103 67.256 495.172 67.256C498.397 67.256 500.01 69.0224 500.01 72.5552C497.092 77.9312 493.559 87.992 489.412 102.738C485.264 117.483 481.885 132.382 479.274 147.435C476.663 162.334 474.436 174.008 472.592 182.456C484.266 184.453 491.024 189.522 492.868 197.662C493.175 199.045 493.328 200.888 493.328 203.192C493.328 205.65 492.407 207.723 490.564 209.413C488.72 211.256 487.108 212.178 485.725 212.178C486.032 211.102 486.109 209.182 485.956 206.418C485.802 203.806 485.264 201.579 484.343 199.736C483.575 197.893 482.039 195.973 479.735 193.976C477.431 191.979 474.436 190.52 470.749 189.598C458.922 234.142 438.416 256.414 409.232 256.414C396.637 256.414 388.266 251.96 384.119 243.051C383.965 242.59 383.888 242.206 383.888 241.899C383.888 240.978 384.733 240.363 386.423 240.056C387.959 239.902 389.111 240.44 389.879 241.669C392.644 247.966 399.095 251.115 409.232 251.115Z" fill="url(#paint5_linear_1_15)"/>
    </g>
    <defs>
        <filter id="filter0_i_1_15" x="0.833496" y="0.67041" width="501.177" height="259.744" filterUnits="userSpaceOnUse" color-interpolation-filters="sRGB">
            <feFlood flood-opacity="0" result="BackgroundImageFix"/>
            <feBlend mode="normal" in="SourceGraphic" in2="BackgroundImageFix" result="shape"/>
            <feColorMatrix in="SourceAlpha" type="matrix" values="0 0 0 0 0 0 0 0 0 0 0 0 0 0 0 0 0 0 127 0" result="hardAlpha"/>
            <feOffset dx="2" dy="4"/>
            <feGaussianBlur stdDeviation="2"/>
            <feComposite in2="hardAlpha" operator="arithmetic" k2="-1" k3="1"/>
            <feColorMatrix type="matrix" values="0 0 0 0 0.615686 0 0 0 0 0.0901961 0 0 0 0 0.301961 0 0 0 0.3 0"/>
            <feBlend mode="normal" in2="shape" result="effect1_innerShadow_1_15"/>
        </filter>
        <linearGradient id="paint0_linear_1_15" x1="0.999875" y1="1" x2="500" y2="256" gradientUnits="userSpaceOnUse">
            <stop stop-color="#FDA4AF"/>
            <stop offset="0.5" stop-color="#F9A8D4"/>
            <stop offset="1" stop-color="#E9D5FF"/>
        </linearGradient>
        <linearGradient id="paint1_linear_1_15" x1="0.999875" y1="1" x2="500" y2="256" gradientUnits="userSpaceOnUse">
            <stop stop-color="#FDA4AF"/>
            <stop offset="0.5" stop-color="#F9A8D4"/>
            <stop offset="1" stop-color="#E9D5FF"/>
        </linearGradient>
        <linearGradient id="paint2_linear_1_15" x1="0.999875" y1="1" x2="500" y2="256" gradientUnits="userSpaceOnUse">
            <stop stop-color="#FDA4AF"/>
            <stop offset="0.5" stop-color="#F9A8D4"/>
            <stop offset="1" stop-color="#E9D5FF"/>
        </linearGradient>
        <linearGradient id="paint3_linear_1_15" x1="0.999875" y1="1" x2="500" y2="256" gradientUnits="userSpaceOnUse">
            <stop stop-color="#FDA4AF"/>
            <stop offset="0.5" stop-color="#F9A8D4"/>
            <stop offset="1" stop-color="#E9D5FF"/>
        </linearGradient>
        <linearGradient id="paint4_linear_1_15" x1="0.999875" y1="1" x2="500" y2="256" gradientUnits="userSpaceOnUse">
            <stop stop-color="#FDA4AF"/>
            <stop offset="0.5" stop-color="#F9A8D4"/>
            <stop offset="1" stop-color="#E9D5FF"/>
        </linearGradient>
        <linearGradient id="paint5_linear_1_15" x1="0.999875" y1="1" x2="500" y2="256" gradientUnits="userSpaceOnUse">
            <stop stop-color="#FDA4AF"/>
            <stop offset="0.5" stop-color="#F9A8D4"/>
            <stop offset="1" stop-color="#E9D5FF"/>
        </linearGradient>
    </defs>
</svg>
